<?xml version="1.0" encoding="UTF-8"?>
<svg version="1.1" xmlns="http://www.w3.org/2000/svg" width="510" height="472">
<path d="M0 0 C2.08297024 1.93735439 4.13793869 3.90238671 6.1875 5.875 C6.81591797 6.47618652 7.44433594 7.07737305 8.09179688 7.69677734 C27.03169005 25.90786049 42.00010063 46.58712303 54.1875 69.875 C54.52201172 70.50599609 54.85652344 71.13699219 55.20117188 71.78710938 C69.43173786 98.99994609 75.98257272 129.05575264 78.87792969 159.38330078 C79.15603054 161.62170557 79.5841036 163.70467842 80.1875 165.875 C81.37339303 164.19824282 82.55911199 162.52136234 83.74414062 160.84399414 C84.8017229 159.34767326 85.86033983 157.8520832 86.91992188 156.35717773 C89.96826914 152.04886463 92.98472796 147.72179522 95.9609375 143.36328125 C96.89268799 142.00734863 96.89268799 142.00734863 97.84326172 140.62402344 C99.05777562 138.85482686 100.26533145 137.08083036 101.46533203 135.30175781 C102.02333496 134.4919043 102.58133789 133.68205078 103.15625 132.84765625 C103.64544922 132.12843994 104.13464844 131.40922363 104.63867188 130.66821289 C106.37096408 128.66258769 107.70831232 127.7847798 110.1875 126.875 C115.62228261 127.30978261 115.62228261 127.30978261 118.1875 129.875 C118.22488139 136.04292873 114.532991 139.98249135 110.9375 144.625 C109.66591985 146.30933229 108.39510601 147.99424333 107.125 149.6796875 C106.47402344 150.5365918 105.82304687 151.39349609 105.15234375 152.27636719 C102.03407323 156.40048143 98.9791692 160.56921963 95.9375 164.75 C95.38932617 165.49217773 94.84115234 166.23435547 94.27636719 166.99902344 C90.34691309 172.03871308 90.34691309 172.03871308 88.1875 177.875 C89.43256518 180.24157427 90.60542893 181.9996859 92.25 184.0625 C93.18543504 185.30037396 94.12030213 186.53867727 95.0546875 187.77734375 C95.5609668 188.43589355 96.06724609 189.09444336 96.58886719 189.77294922 C99.42534987 193.50265537 102.1423743 197.31891359 104.875 201.125 C109.18418288 207.13699311 109.18418288 207.13699311 113.60546875 213.06640625 C114.25128906 213.93136719 114.89710938 214.79632813 115.5625 215.6875 C116.10648437 216.39519531 116.65046875 217.10289062 117.2109375 217.83203125 C118.51542047 220.56100962 118.12302417 222.04943207 117.1875 224.875 C114.81702235 226.80650031 113.41252187 226.87997286 110.359375 226.8125 C106.08563653 225.54932607 104.49899593 223.04699201 102.125 219.5 C101.66673828 218.84604248 101.20847656 218.19208496 100.73632812 217.51831055 C99.20106414 215.31637821 97.69388863 213.09677246 96.1875 210.875 C95.02306711 209.18034902 93.85767643 207.48635582 92.69140625 205.79296875 C89.9592196 201.81867321 87.24589842 197.83209105 84.546875 193.83520508 C83.14204438 191.80945346 81.67836316 189.83806118 80.1875 187.875 C80.04054688 189.18984375 80.04054688 189.18984375 79.890625 190.53125 C74.17702463 238.99834282 60.10053258 284.28775304 29.1875 322.875 C28.42953125 323.83664062 27.6715625 324.79828125 26.890625 325.7890625 C13.58731886 342.10833556 -1.55662991 356.80441235 -18.8125 368.875 C-19.43930664 369.3198877 -20.06611328 369.76477539 -20.71191406 370.22314453 C-53.41305034 393.30983743 -91.94696149 407.90690242 -131.8125 411.875 C-132.885 411.98585938 -133.9575 412.09671875 -135.0625 412.2109375 C-191.36019847 417.12370836 -250.43524555 402.06489039 -295.8125 367.875 C-296.39999023 367.44010254 -296.98748047 367.00520508 -297.59277344 366.55712891 C-313.69916165 354.58592512 -328.33783572 340.57622489 -340.8125 324.875 C-341.58464844 323.93140625 -342.35679687 322.9878125 -343.15234375 322.015625 C-366.68214439 292.57477234 -381.31194224 257.59914207 -388.8125 220.875 C-389.08151123 219.61888916 -389.08151123 219.61888916 -389.35595703 218.33740234 C-395.24500425 189.73429414 -394.00412712 156.2948057 -387.8125 127.875 C-387.60351074 126.89950195 -387.39452148 125.92400391 -387.17919922 124.91894531 C-379.41997812 89.89492558 -363.76419698 56.52155079 -340.8125 28.875 C-340.31637207 28.2773584 -339.82024414 27.6797168 -339.30908203 27.06396484 C-328.79334166 14.49621481 -317.75983811 2.97893099 -304.8125 -7.125 C-303.81734375 -7.92550781 -302.8221875 -8.72601563 -301.796875 -9.55078125 C-228.9034468 -67.68371635 -124.3731114 -74.51492629 0 0 Z " fill="#E7562E" transform="translate(391.8125,59.125)"/>
<path d="M0 0 C0.8871167 0.00572021 1.7742334 0.01144043 2.68823242 0.01733398 C11.67459994 0.26270965 17.4314042 2.77668003 24.0625 8.8125 C27.32201388 12.34044443 29.3672935 16.08211187 31.1875 20.5 C31.6 21.4075 32.0125 22.315 32.4375 23.25 C33.59360285 28.259779 33.70815689 33.38531173 33.1875 38.5 C31.1875 40.5 31.1875 40.5 28.8210144 40.74050903 C27.33542526 40.7338472 27.33542526 40.7338472 25.81982422 40.72705078 C24.13830765 40.72682419 24.13830765 40.72682419 22.42282104 40.72659302 C21.20821198 40.71627045 19.99360291 40.70594788 18.7421875 40.6953125 C17.50203888 40.6924826 16.26189026 40.68965271 14.98416138 40.68673706 C11.68625367 40.67742174 8.38854028 40.6594489 5.09069824 40.6373291 C1.7258543 40.61687474 -1.63901807 40.60773623 -5.00390625 40.59765625 C-11.60684723 40.57556519 -18.20965771 40.54206483 -24.8125 40.5 C-24.3806962 42.243292 -23.93693032 43.98362332 -23.48828125 45.72265625 C-23.24247314 46.69211182 -22.99666504 47.66156738 -22.7434082 48.66040039 C-20.5415789 55.37675934 -16.01688662 60.19979435 -9.8125 63.5 C-2.8025134 65.31020451 6.41025687 65.98498241 13.25 63.3125 C17.85592359 60.47054715 21.09197545 56.89890331 24.1875 52.5 C26.46905293 52.89337119 28.05450007 53.41286211 30 54.6875 C31.1875 56.5 31.1875 56.5 31.125 59.375 C29.31510972 65.40796761 25.52294597 68.4218581 20.1875 71.5 C8.49950494 76.75959778 -3.7814384 76.90972521 -15.8125 72.5 C-24.76208608 67.60593333 -31.71630764 59.18808576 -34.8125 49.5 C-37.16972943 37.79295452 -36.57624744 26.33907807 -30.26953125 15.9609375 C-22.53201485 5.37275717 -13.08099561 -0.097316 0 0 Z " fill="#FDF7F5" transform="translate(155.8125,209.5)"/>
<path d="M0 0 C5.7356548 4.76819495 9.57166375 9.12557988 10.9453125 16.6171875 C11.21080787 20.71175977 11.17832139 24.79285147 11.140625 28.89453125 C11.1377951 30.061017 11.13496521 31.22750275 11.13204956 32.42933655 C11.12089638 36.13789326 11.09580036 39.84620435 11.0703125 43.5546875 C11.06027643 46.07616838 11.05115168 48.59765305 11.04296875 51.11914062 C11.02097294 57.2852394 10.98754368 63.45119589 10.9453125 69.6171875 C4.1796875 69.7421875 4.1796875 69.7421875 2.0703125 68.6171875 C0.27287716 65.4217469 0.24328536 62.25245643 -0.0546875 58.6171875 C-0.395 59.07609375 -0.7353125 59.535 -1.0859375 60.0078125 C-5.58365167 65.70172725 -10.23996935 68.34561478 -17.0546875 70.6171875 C-19.96517531 70.79279557 -22.83018119 70.89437619 -25.7421875 70.9296875 C-26.52013672 70.95869141 -27.29808594 70.98769531 -28.09960938 71.01757812 C-34.87950746 71.09108828 -40.03430527 69.33381212 -45.11328125 64.765625 C-45.56832031 64.18039062 -46.02335938 63.59515625 -46.4921875 62.9921875 C-46.96527344 62.40179688 -47.43835938 61.81140625 -47.92578125 61.203125 C-51.38921645 56.33753783 -50.61118779 50.33640128 -50.0546875 44.6171875 C-48.32986147 38.88928929 -44.80120109 36.17219953 -39.7421875 33.2421875 C-26.84318003 26.87890708 -13.09671369 27.47057702 0.9453125 27.6171875 C0.54603906 25.55124992 0.12510527 23.48949223 -0.3046875 21.4296875 C-0.65273437 19.70685547 -0.65273437 19.70685547 -1.0078125 17.94921875 C-2.5460686 13.05320213 -4.8202548 10.44014264 -9.0546875 7.6171875 C-16.87554654 5.59051971 -24.94363879 5.57365 -32.0546875 9.6171875 C-35.5865328 12.06985785 -38.52168174 14.47807195 -40.0546875 18.6171875 C-45.9296875 16.7421875 -45.9296875 16.7421875 -47.0546875 15.6171875 C-47.41479196 11.87210116 -47.47797101 9.40603405 -45.6796875 6.0546875 C-34.46293361 -4.36086969 -13.58711171 -8.61978055 0 0 Z " fill="#FEFBFA" transform="translate(246.0546875,213.3828125)"/>
<path d="M0 0 C3.5 0.25 3.5 0.25 5.5 2.25 C5.74050903 4.08499146 5.74050903 4.08499146 5.72705078 6.33251953 C5.72680908 7.18499268 5.72656738 8.03746582 5.72631836 8.91577148 C5.71608643 9.81239502 5.70585449 10.70901855 5.6953125 11.6328125 C5.69329834 12.45644287 5.69128418 13.28007324 5.68920898 14.12866211 C5.67873023 17.21083124 5.6508077 20.2929211 5.625 23.375 C5.58375 30.26375 5.5425 37.1525 5.5 44.25 C23.98 44.25 42.46 44.25 61.5 44.25 C61.46039384 30.14365776 61.46039384 30.14365776 61.40991211 16.03735352 C61.40699304 14.27620504 61.40444446 12.51505589 61.40234375 10.75390625 C61.39722778 9.83057495 61.39211182 8.90724365 61.38684082 7.95593262 C61.38665955 6.64658752 61.38665955 6.64658752 61.38647461 5.31079102 C61.384254 4.54912125 61.38203339 3.78745148 61.37974548 3.00270081 C61.5 1.25 61.5 1.25 62.5 0.25 C68.96153846 -0.10897436 68.96153846 -0.10897436 72.5 2.25 C72.79668246 5.2591888 72.89881483 8.06270803 72.87231445 11.07421875 C72.87596512 11.98813385 72.87961578 12.90204895 72.88337708 13.84365845 C72.89150612 16.87512596 72.87785291 19.90606288 72.86328125 22.9375 C72.86276293 25.03735351 72.86327955 27.13720752 72.86479187 29.23706055 C72.86470204 33.64216334 72.8542508 38.04708352 72.83618164 42.45214844 C72.81349417 48.10855275 72.81294924 53.76469003 72.81969929 59.42112732 C72.82303524 63.75844714 72.81641623 68.0957057 72.80657005 72.43301392 C72.80271131 74.51909057 72.80157261 76.60517404 72.8031559 78.69125366 C72.80352532 81.60289577 72.79094083 84.51419106 72.7746582 87.42578125 C72.77713562 88.29441803 72.77961304 89.16305481 72.78216553 90.05801392 C72.72873986 96.02126014 72.72873986 96.02126014 70.5 98.25 C67.78545044 98.57752234 65.24769241 98.3808425 62.5 98.25 C61.5 97.25 61.5 97.25 61.37974548 95.49729919 C61.38196609 94.73562943 61.38418671 93.97395966 61.38647461 93.18920898 C61.38659546 92.31631226 61.38671631 91.44341553 61.38684082 90.54406738 C61.39195679 89.62073608 61.39707275 88.69740479 61.40234375 87.74609375 C61.40335083 86.9017981 61.40435791 86.05750244 61.40539551 85.18762207 C61.4106443 82.02090098 61.42460544 78.85419919 61.4375 75.6875 C61.458125 68.613125 61.47875 61.53875 61.5 54.25 C43.02 54.25 24.54 54.25 5.5 54.25 C5.53960616 68.35634224 5.53960616 68.35634224 5.59008789 82.46264648 C5.59300696 84.22379496 5.59555554 85.98494411 5.59765625 87.74609375 C5.60277222 88.66942505 5.60788818 89.59275635 5.61315918 90.54406738 C5.61328003 91.41696411 5.61340088 92.28986084 5.61352539 93.18920898 C5.615746 93.95087875 5.61796661 94.71254852 5.62025452 95.49729919 C5.5 97.25 5.5 97.25 4.5 98.25 C3.00261876 98.3479057 1.50057108 98.37974864 0 98.375 C-0.8146875 98.37757813 -1.629375 98.38015625 -2.46875 98.3828125 C-4.5 98.25 -4.5 98.25 -5.5 97.25 C-5.60592717 94.30827567 -5.64677624 91.38990195 -5.64526367 88.44750977 C-5.64862228 87.52398712 -5.6519809 86.60046448 -5.65544128 85.6489563 C-5.66498199 82.57975947 -5.66689594 79.51061701 -5.66796875 76.44140625 C-5.67117912 74.31770301 -5.67454302 72.194 -5.67805481 70.07029724 C-5.68405387 65.61220792 -5.68589391 61.154138 -5.68530273 56.69604492 C-5.68520106 50.97125762 -5.6988555 45.2465942 -5.71607494 39.52183628 C-5.7271696 35.13392053 -5.72922273 30.74603496 -5.72869301 26.35810661 C-5.72987688 24.24690257 -5.73432123 22.13569784 -5.74202538 20.02450752 C-5.75177444 17.07687724 -5.74896745 14.12951901 -5.74291992 11.18188477 C-5.74853943 10.3023262 -5.75415894 9.42276764 -5.75994873 8.51655579 C-5.71747117 0.4083908 -5.71747117 0.4083908 0 0 Z " fill="#FEFEFE" transform="translate(36.5,184.75)"/>
<path d="M0 0 C3.1875 0.3125 3.1875 0.3125 5.34863281 1.78808594 C7.95529308 5.36653352 7.79040848 8.74952115 7.796875 13.015625 C7.82167938 14.27230988 7.82167938 14.27230988 7.84698486 15.55438232 C7.89547499 18.22382937 7.91683745 20.89270674 7.9375 23.5625 C7.96565893 25.37502868 7.99558625 27.1875308 8.02734375 29 C8.10123394 33.43745309 8.15080214 37.87458977 8.1875 42.3125 C8.65365723 41.76400391 9.11981445 41.21550781 9.60009766 40.65039062 C10.21933105 39.93044922 10.83856445 39.21050781 11.4765625 38.46875 C12.08709473 37.75525391 12.69762695 37.04175781 13.32666016 36.30664062 C18.06229046 31.23177467 22.4495239 30.13821935 29.36035156 29.84375 C37.77212074 29.72767557 44.65983397 30.28394676 51.171875 36.078125 C60.07763714 45.42549518 60.33869686 56.50319299 60.35546875 68.80078125 C60.36046135 70.09921211 60.36046135 70.09921211 60.36555481 71.4238739 C60.37057864 73.23643467 60.37296456 75.04900454 60.37280273 76.86157227 C60.37500802 79.6350803 60.39326242 82.40820174 60.41210938 85.18164062 C60.41504052 86.95051948 60.41702718 88.71940021 60.41796875 90.48828125 C60.42515427 91.31435379 60.43233978 92.14042633 60.43974304 92.99153137 C60.4116188 100.04381116 60.4116188 100.04381116 58.1875 103.3125 C52.1328125 103.5078125 52.1328125 103.5078125 50.1875 103.3125 C47.76559926 100.89059926 47.93092199 100.28874423 47.90039062 96.97387695 C47.88026917 95.62656242 47.88026917 95.62656242 47.85974121 94.25202942 C47.85446411 93.27811752 47.84918701 92.30420563 47.84375 91.30078125 C47.8291272 90.29919479 47.81450439 89.29760834 47.79943848 88.26567078 C47.75282118 85.05215472 47.71871263 81.83870042 47.6875 78.625 C47.64624799 74.41253535 47.59245453 70.20049789 47.53125 65.98828125 C47.5259729 65.02449051 47.5206958 64.06069977 47.51525879 63.06770325 C47.41777169 56.42551639 47.26038488 50.76723209 42.8125 45.5 C37.24358173 40.85923477 32.76164283 40.88474855 25.61328125 40.99609375 C19.77978776 41.53487707 16.87040882 43.49313911 12.875 47.8125 C10.29578548 51.63355855 8.94286534 54.28565345 8.90039062 58.94165039 C8.88697632 59.85261978 8.87356201 60.76358917 8.85974121 61.7021637 C8.85446411 62.67830124 8.84918701 63.65443878 8.84375 64.66015625 C8.8291272 65.66839951 8.81450439 66.67664276 8.79943848 67.71543884 C8.73717939 72.02769462 8.69752145 76.34009275 8.65576172 80.65258789 C8.62207259 83.80109782 8.57695474 86.94930159 8.53125 90.09765625 C8.5259729 91.07581802 8.5206958 92.0539798 8.51525879 93.06178284 C8.50184448 93.96960007 8.48843018 94.8774173 8.47460938 95.81274414 C8.46731812 96.61120255 8.46002686 97.40966095 8.45251465 98.23231506 C8.1875 100.3125 8.1875 100.3125 6.1875 103.3125 C4.3125 103.7109375 4.3125 103.7109375 2.1875 103.6875 C1.48625 103.69523437 0.785 103.70296875 0.0625 103.7109375 C-1.8125 103.3125 -1.8125 103.3125 -3.8125 100.3125 C-4.06138897 98.40003014 -4.06138897 98.40003014 -4.05973816 96.20004272 C-4.06393265 95.36436264 -4.06812714 94.52868256 -4.07244873 93.66767883 C-4.06682922 92.75431259 -4.06120972 91.84094635 -4.05541992 90.89990234 C-4.05731827 89.93546707 -4.05921661 88.9710318 -4.06117249 87.97737122 C-4.06488227 84.78431106 -4.05417443 81.59147749 -4.04296875 78.3984375 C-4.04177712 76.18551663 -4.04132375 73.97259525 -4.0415802 71.75967407 C-4.04001507 67.12100053 -4.03172199 62.48240414 -4.01831055 57.84375 C-4.00130088 51.883541 -3.99749674 45.92341669 -3.99825573 39.96318626 C-3.99798448 35.39430933 -3.99251082 30.82545109 -3.98525429 26.25658035 C-3.98206182 24.05803189 -3.98009887 21.85948129 -3.97936058 19.66093063 C-3.97720424 16.5960195 -3.96847598 13.53120017 -3.95776367 10.46630859 C-3.95821686 9.54889389 -3.95867004 8.63147919 -3.95913696 7.68626404 C-3.92188183 0.43576465 -3.92188183 0.43576465 0 0 Z " fill="#FDF6F4" transform="translate(350.8125,179.6875)"/>
<path d="M0 0 C3.5 0.25 3.5 0.25 5.5 2.25 C5.64507695 4.99485593 5.68652423 7.63480543 5.625 10.375 C5.61597656 11.12910156 5.60695313 11.88320312 5.59765625 12.66015625 C5.5740687 14.52357254 5.53819719 16.38682593 5.5 18.25 C6.12567871 18.23952637 6.75135742 18.22905273 7.39599609 18.21826172 C10.2222901 18.17676809 13.04852011 18.15069527 15.875 18.125 C16.85984375 18.10824219 17.8446875 18.09148437 18.859375 18.07421875 C20.27089844 18.06455078 20.27089844 18.06455078 21.7109375 18.0546875 C22.58024902 18.04421387 23.44956055 18.03374023 24.34521484 18.02294922 C26.5 18.25 26.5 18.25 28.5 20.25 C28.75 22.75 28.75 22.75 28.5 25.25 C26.5 27.25 26.5 27.25 24.34521484 27.47705078 C23.47590332 27.46657715 22.6065918 27.45610352 21.7109375 27.4453125 C20.76992188 27.43886719 19.82890625 27.43242187 18.859375 27.42578125 C17.87453125 27.40902344 16.8896875 27.39226562 15.875 27.375 C14.88242187 27.36597656 13.88984375 27.35695312 12.8671875 27.34765625 C10.41121866 27.32404116 7.95572832 27.29110799 5.5 27.25 C5.54170308 33.97652305 5.6140627 40.70222097 5.70751953 47.42822266 C5.73570652 49.71525621 5.75693231 52.00238677 5.77099609 54.28955078 C5.79245638 57.58155906 5.83912471 60.87240378 5.890625 64.1640625 C5.89185364 65.18303619 5.89308228 66.20200989 5.89434814 67.25186157 C6.01601518 73.17856237 6.49264092 76.76147809 10.5 81.25 C14.6154481 82.55310253 18.53885701 81.74125086 22.3125 79.8125 C23.034375 79.296875 23.75625 78.78125 24.5 78.25 C26.8125 77.5625 26.8125 77.5625 28.5 77.25 C29.96478873 83.47535211 29.96478873 83.47535211 27.8125 87.0625 C23.54087816 91.10322337 19.36622084 92.15975045 13.5 92.25 C7.64489529 91.6885516 2.50512346 90.84411221 -1.5 86.25 C-5.57821263 79.41460961 -6.04478121 73.25326174 -5.890625 65.43359375 C-5.88496521 64.33652603 -5.87930542 63.23945831 -5.87347412 62.10914612 C-5.85123774 58.63480394 -5.80106382 55.16152593 -5.75 51.6875 C-5.7299186 49.31967644 -5.71167072 46.95183658 -5.6953125 44.58398438 C-5.65141484 38.80563179 -5.58463105 33.02789195 -5.5 27.25 C-6.28246094 27.26160156 -7.06492187 27.27320313 -7.87109375 27.28515625 C-8.88300781 27.29417969 -9.89492188 27.30320313 -10.9375 27.3125 C-11.94683594 27.32410156 -12.95617187 27.33570313 -13.99609375 27.34765625 C-16.5 27.25 -16.5 27.25 -17.5 26.25 C-17.6875 23.3125 -17.6875 23.3125 -17.5 20.25 C-15.5 18.25 -15.5 18.25 -13.1171875 18.0546875 C-12.21226562 18.07789063 -11.30734375 18.10109375 -10.375 18.125 C-9.00988281 18.15207031 -9.00988281 18.15207031 -7.6171875 18.1796875 C-6.91851562 18.20289063 -6.21984375 18.22609375 -5.5 18.25 C-5.52320313 17.11820313 -5.54640625 15.98640625 -5.5703125 14.8203125 C-5.58906901 13.33854825 -5.60726934 11.85677688 -5.625 10.375 C-5.64175781 9.62863281 -5.65851563 8.88226563 -5.67578125 8.11328125 C-5.6933959 6.15805539 -5.60320189 4.20257979 -5.5 2.25 C-3.5 0.25 -3.5 0.25 0 0 Z " fill="#FEFBFA" transform="translate(309.5,192.75)"/>
<path d="M0 0 C4.75893207 4.04428015 8.05768006 9.12411539 11.5625 14.25 C16.89770864 22.05269565 16.89770864 22.05269565 22.58203125 29.6015625 C33.07262963 43.03510805 33.07262963 43.03510805 32.171875 52.41796875 C29.86083914 59.48203503 25.29324733 65.01601971 20.72412109 70.78271484 C17.86202889 74.46347403 15.22470891 78.29860024 12.5625 82.125 C11.15715817 84.12121354 9.74840347 86.11492074 8.33642578 88.10644531 C7.42143067 89.4028834 6.51389255 90.7046077 5.61279297 92.01074219 C2.21567073 96.89216463 2.21567073 96.89216463 0 98 C-4.05142119 98.25860135 -5.54337669 98.30441554 -9 96 C-8.48948429 91.39685005 -6.46293464 88.4196363 -3.75 84.8125 C-2.84364673 83.57689866 -1.93740237 82.34121743 -1.03125 81.10546875 C-0.54398437 80.44724121 -0.05671875 79.78901367 0.4453125 79.11083984 C3.24721185 75.30662788 5.99224908 71.46126545 8.75 67.625 C9.80618586 66.15805736 10.86344677 64.69188805 11.921875 63.2265625 C12.42396484 62.52563477 12.92605469 61.82470703 13.44335938 61.10253906 C14.51168066 59.6595681 15.61992262 58.24556587 16.75976562 56.85839844 C19.95340533 53.10546254 19.95340533 53.10546254 21.234375 48.51171875 C19.3243799 44.62524138 16.84674825 41.26761573 14.25 37.8125 C13.07004727 36.21243514 11.89036807 34.61216854 10.7109375 33.01171875 C10.10088867 32.18978027 9.49083984 31.3678418 8.86230469 30.52099609 C5.82960406 26.41563864 2.85500735 22.26867384 -0.125 18.125 C-1.18949085 16.64799528 -2.25455497 15.17140348 -3.3203125 13.6953125 C-3.76648926 13.07672363 -4.21266602 12.45813477 -4.67236328 11.82080078 C-5.63696276 10.49789109 -6.64565046 9.20678302 -7.67919922 7.93701172 C-9 6 -9 6 -8.8125 3.3125 C-7.31744774 -0.94264873 -4.04142726 -0.47546203 0 0 Z " fill="#FEF9F8" transform="translate(440,187)"/>
<path d="M0 0 C3.4375 0.25 3.4375 0.25 7 1 C9.03747682 4.05621523 9.24984044 4.64173313 9.24723816 8.07449341 C9.25143265 8.90175934 9.25562714 9.72902527 9.25994873 10.58135986 C9.25151947 11.93738312 9.25151947 11.93738312 9.24291992 13.32080078 C9.24481827 14.27548248 9.24671661 15.23016418 9.24867249 16.21377563 C9.2523821 19.37437103 9.24167468 22.53473748 9.23046875 25.6953125 C9.22927711 27.88581312 9.22882375 30.07631426 9.2290802 32.26681519 C9.2275151 36.85841061 9.21922223 41.44992809 9.20581055 46.04150391 C9.18880068 51.94117896 9.18499675 57.84076846 9.18575573 63.74046516 C9.18548448 68.26301904 9.18001081 72.78555404 9.17275429 77.30810165 C9.16956186 79.48432141 9.16759888 81.66054332 9.16686058 83.83676529 C9.16470421 86.87054378 9.15597589 89.90422955 9.14526367 92.93798828 C9.14571686 93.84605225 9.14617004 94.75411621 9.14663696 95.68969727 C9.11447501 101.88552499 9.11447501 101.88552499 8 103 C6.1875 103.1328125 6.1875 103.1328125 4 103.125 C3.278125 103.12757813 2.55625 103.13015625 1.8125 103.1328125 C0 103 0 103 -1 102 C-1.10068417 98.86976516 -1.1361416 95.7615508 -1.12939453 92.63085938 C-1.13114685 91.64720901 -1.13289917 90.66355865 -1.13470459 89.65010071 C-1.13912505 86.38129947 -1.13618443 83.11255184 -1.1328125 79.84375 C-1.13348548 77.58312978 -1.13445546 75.32250962 -1.13571167 73.06188965 C-1.13718891 68.31713168 -1.13503326 63.57239251 -1.13037109 58.82763672 C-1.1246738 52.73061376 -1.12795266 46.63363481 -1.13394356 40.53661346 C-1.13754848 35.86651271 -1.1364109 31.19642247 -1.13381577 26.52632141 C-1.1331463 24.27753189 -1.13397558 22.02874143 -1.13629532 19.779953 C-1.13882071 16.64298962 -1.13498285 13.50609859 -1.12939453 10.36914062 C-1.13141876 9.42988235 -1.13344299 8.49062408 -1.13552856 7.52290344 C-1.11426225 1.11426225 -1.11426225 1.11426225 0 0 Z " fill="#FEFEFE" transform="translate(274,180)"/>
<path d="M0 0 C1.03207149 13.60805377 1.03207149 13.60805377 -2.5 18.5625 C-7.50960043 24.09442843 -13.35133173 27.60505743 -20.8046875 28.23828125 C-27.08035351 28.3899831 -31.10755819 28.39065291 -36 24 C-36.53496094 23.56042969 -37.06992188 23.12085938 -37.62109375 22.66796875 C-39.95930636 19.83959259 -39.52593067 16.97330338 -39.41796875 13.44140625 C-38.77405826 9.68024686 -37.01172891 8.2086012 -34 6 C-29.87331675 3.10538405 -25.83789339 2.11235194 -20.9375 1.3125 C-20.19250244 1.18512451 -19.44750488 1.05774902 -18.67993164 0.92651367 C-12.43443017 -0.07338354 -6.32163794 -0.32887134 0 0 Z " fill="#E75831" transform="translate(246,248)"/>
<path d="M0 0 C5.68875867 5.71354629 6.7638038 9.56746168 7.79296875 17.80078125 C-7.38703125 17.80078125 -22.56703125 17.80078125 -38.20703125 17.80078125 C-37.07276608 8.72665991 -35.11370836 5.33539387 -28.58203125 -0.57421875 C-19.55643142 -6.74962916 -8.51739332 -7.12332895 0 0 Z " fill="#E75730" transform="translate(170.20703125,223.19921875)"/>
</svg>
